<?xml version="1.0" standalone="no"?>
<!DOCTYPE svg PUBLIC "-//W3C//DTD SVG 20010904//EN"
 "http://www.w3.org/TR/2001/REC-SVG-20010904/DTD/svg10.dtd">
<svg version="1.0" xmlns="http://www.w3.org/2000/svg"
 width="1308.000000pt" height="1320.000000pt" viewBox="0 0 1308.000000 1320.000000"
 preserveAspectRatio="xMidYMid meet">

<g transform="translate(0.000000,1320.000000) scale(0.100000,-0.100000)"
fill="#000000" stroke="none">
<path d="M7800 9818 c-81 -53 -204 -174 -257 -253 -197 -293 -221 -639 -68
-945 18 -36 394 -697 834 -1469 441 -772 801 -1408 801 -1413 0 -12 -165 -10
-1105 12 -1035 24 -1124 25 -1223 4 -282 -58 -531 -264 -636 -526 -31 -79 -56
-179 -56 -230 0 -36 1 -37 43 -42 98 -11 3804 -85 3847 -77 203 41 346 176
396 374 19 71 14 154 -12 232 -9 28 -520 932 -1134 2010 -615 1078 -1169 2050
-1231 2159 -63 110 -119 201 -124 203 -6 2 -39 -16 -75 -39z"/>
<path d="M5730 9719 c-94 -16 -195 -71 -268 -147 -52 -54 -313 -459 -1394
-2157 -1323 -2080 -1329 -2090 -1307 -2105 40 -27 147 -70 227 -92 111 -31
381 -31 494 0 238 65 450 209 582 395 24 34 432 672 906 1417 474 745 867
1360 874 1367 6 7 16 9 22 5 6 -4 226 -385 488 -847 263 -462 494 -865 513
-895 116 -177 297 -311 503 -370 107 -31 298 -38 411 -15 113 23 242 73 235
91 -10 26 -1737 3058 -1778 3122 -76 118 -185 195 -320 227 -70 16 -106 17
-188 4z"/>
<path d="M4897 5700 c-510 -847 -934 -1555 -942 -1574 -25 -58 -48 -232 -43
-321 7 -141 84 -271 209 -354 34 -23 90 -50 126 -61 64 -20 89 -20 2640 -20
l2574 0 24 26 c30 33 33 96 9 212 -71 345 -339 615 -684 688 -54 11 -377 14
-1902 14 -1189 0 -1838 3 -1838 10 0 5 238 405 528 887 640 1063 574 949 613
1063 26 78 33 115 37 206 2 63 -1 141 -7 178 -28 160 -113 324 -226 440 -53
54 -169 146 -184 146 -3 0 -424 -693 -934 -1540z"/>
</g>
</svg>
